<svg width="30" height="30" viewBox="0 0 30 30" fill="none" xmlns="http://www.w3.org/2000/svg">
<path d="M18.1367 5C18.7433 5 19.0467 4.99977 19.3184 5.07812C19.6697 5.17951 19.9865 5.37566 20.2344 5.64453C20.426 5.8525 20.5617 6.12429 20.833 6.66699L21.8594 8.71875C22.252 9.50393 23.0548 10 23.9326 10C25.2124 10.0001 26.2499 11.0376 26.25 12.3174V19C26.25 21.8284 26.2498 23.2424 25.3711 24.1211C24.4924 24.9998 23.0784 25 20.25 25H9.75C6.92157 25 5.50759 24.9998 4.62891 24.1211C3.75023 23.2424 3.75 21.8284 3.75 19V12.3174C3.75013 11.0376 4.78759 10.0001 6.06738 10C6.94524 10 7.74804 9.50393 8.14062 8.71875L9.16699 6.66699C9.43834 6.12429 9.57397 5.8525 9.76562 5.64453C10.0135 5.37566 10.3303 5.17951 10.6816 5.07812C10.9533 4.99977 11.2567 5 11.8633 5H18.1367ZM15 11.25C12.2386 11.25 10 13.4886 10 16.25C10 19.0114 12.2386 21.25 15 21.25C17.7614 21.25 20 19.0114 20 16.25C20 13.4886 17.7614 11.25 15 11.25ZM15 13.25C16.6569 13.25 18 14.5931 18 16.25C18 17.9069 16.6569 19.25 15 19.25C13.3431 19.25 12 17.9069 12 16.25C12 14.5931 13.3431 13.25 15 13.25Z" fill="white"/>
</svg>
