<svg width="19" height="19" viewBox="0 0 19 19" fill="none" xmlns="http://www.w3.org/2000/svg">
<mask id="mask0_2974_273" style="mask-type:alpha" maskUnits="userSpaceOnUse" x="8" y="1" width="8" height="9">
<path d="M15.6566 1.97942L11.3726 4.34693L8.66699 6.71441L11.9371 9.98393L14.9802 4.79788L15.995 1.97942L15.6566 1.97942Z" fill="#D9D9D9"/>
</mask>
<g mask="url(#mask0_2974_273)">
<path d="M15.8756 2.01526L13.484 6.6388L5.35294 14.1323L3.91803 12.6974C3.91803 12.6974 9.25902 6.87795 11.4114 4.56615C13.9623 3.13124 15.8756 2.01526 15.8756 2.01526Z" fill="#151231"/>
</g>
<mask id="mask1_2974_273" style="mask-type:alpha" maskUnits="userSpaceOnUse" x="2" y="8" width="8" height="8">
<path d="M2.52427 11.4901L5.28473 8.85639L9.23053 12.5767L6.52506 15.5082L2.52427 11.4901Z" fill="#D9D9D9"/>
</mask>
<g mask="url(#mask1_2974_273)">
<path d="M15.8746 2.01526L13.4831 6.6388L5.35196 14.1323L3.91705 12.6974C3.91705 12.6974 9.25805 6.87795 11.4104 4.56615C13.9614 3.13124 15.8746 2.01526 15.8746 2.01526Z" fill="#151231"/>
</g>
<rect x="2.89453" y="12.4443" width="3.83306" height="1.12737" rx="0.563686" transform="rotate(45 2.89453 12.4443)" fill="#151231"/>
<rect x="4.64844" y="14.1982" width="3.15664" height="1.12737" rx="0.563686" transform="rotate(135 4.64844 14.1982)" fill="#151231"/>
<path d="M1.27991 2.16955L5.90345 4.56113L13.3969 12.6922L11.962 14.1271C11.962 14.1271 6.1426 8.78614 3.8308 6.63378C2.39589 4.08283 1.27991 2.16955 1.27991 2.16955Z" fill="#151231"/>
<rect x="11.71" y="15.1497" width="3.83306" height="1.12737" rx="0.563686" transform="rotate(-45 11.71 15.1497)" fill="#151231"/>
<rect x="13.4639" y="13.396" width="3.15664" height="1.12737" rx="0.563686" transform="rotate(45 13.4639 13.396)" fill="#151231"/>
</svg>
