<svg width="15" height="18" viewBox="0 0 15 18" fill="none" xmlns="http://www.w3.org/2000/svg">
<path d="M10 16.5487V11.5487C10 10.9964 9.55228 10.5487 9 10.5487H6C5.44772 10.5487 5 10.9964 5 11.5487V16.5487" stroke="#151231" stroke-linecap="round" stroke-linejoin="round"/>
<path d="M0.5 8.30838C0.5 6.95062 0.5 6.27174 0.774461 5.675C1.04892 5.07826 1.56437 4.63645 2.59525 3.75284L3.59525 2.89569C5.45857 1.29856 6.39023 0.5 7.5 0.5C8.60977 0.5 9.54143 1.29856 11.4047 2.89569L12.4047 3.75284C13.4356 4.63645 13.9511 5.07826 14.2255 5.675C14.5 6.27174 14.5 6.95062 14.5 8.30838V12.5488C14.5 14.4344 14.5 15.3772 13.9142 15.963C13.3284 16.5488 12.3856 16.5488 10.5 16.5488H4.5C2.61438 16.5488 1.67157 16.5488 1.08579 15.963C0.5 15.3772 0.5 14.4344 0.5 12.5488V8.30838Z" stroke="#151231"/>
</svg>
