<svg width="28" height="26" viewBox="0 0 28 26" fill="none" xmlns="http://www.w3.org/2000/svg">
<path d="M0.591106 8.31644L3.52491 12.4817C3.70728 12.7406 4.08136 12.7669 4.29816 12.5361L6.22601 10.4833V24.9833C6.22601 25.2594 6.44987 25.4833 6.72601 25.4833H20.9869C21.263 25.4833 21.4869 25.2594 21.4869 24.9833V10.4833L23.4147 12.5361C23.6315 12.7669 24.0056 12.7406 24.188 12.4817L27.1218 8.31644C27.2584 8.12247 27.2399 7.85918 27.0775 7.68623L22.2693 2.56637C21.7579 2.02187 21.1043 1.63144 20.3825 1.43928L16.8643 0.502734C16.8237 0.491922 16.7819 0.515545 16.7702 0.555915C16.518 1.42585 15.7825 2.06937 14.8868 2.20373L13.8681 2.35653C13.8604 2.35769 13.8525 2.35769 13.8448 2.35653L12.8261 2.20373C11.9304 2.06937 11.1949 1.42585 10.9427 0.555915C10.931 0.515545 10.8892 0.491922 10.8486 0.502734L7.33042 1.43928C6.60859 1.63144 5.95498 2.02187 5.44363 2.56637L0.635413 7.68623C0.472991 7.85918 0.45448 8.12247 0.591106 8.31644Z" fill="#F3DD14" stroke="#050505" stroke-linejoin="round"/>
<path d="M13.6807 15.5583V16.4833H9.68066V15.5583H11.1457V11.3433C11.1457 11.1766 11.1507 11.0049 11.1607 10.8283L10.1207 11.6983C10.0607 11.7449 10.0007 11.7749 9.94066 11.7883C9.884 11.7983 9.829 11.7983 9.77566 11.7883C9.72566 11.7783 9.68066 11.7616 9.64066 11.7383C9.60066 11.7116 9.57066 11.6833 9.55066 11.6533L9.16066 11.1183L11.3657 9.24328H12.3807V15.5583H13.6807ZM18.9564 12.8683C18.9564 13.4983 18.8881 14.0466 18.7514 14.5133C18.6181 14.9766 18.4314 15.3599 18.1914 15.6633C17.9548 15.9666 17.6731 16.1933 17.3464 16.3433C17.0231 16.4899 16.6731 16.5633 16.2964 16.5633C15.9198 16.5633 15.5698 16.4899 15.2464 16.3433C14.9264 16.1933 14.6481 15.9666 14.4114 15.6633C14.1748 15.3599 13.9898 14.9766 13.8564 14.5133C13.7231 14.0466 13.6564 13.4983 13.6564 12.8683C13.6564 12.2349 13.7231 11.6866 13.8564 11.2233C13.9898 10.7599 14.1748 10.3766 14.4114 10.0733C14.6481 9.76995 14.9264 9.54495 15.2464 9.39828C15.5698 9.24828 15.9198 9.17328 16.2964 9.17328C16.6731 9.17328 17.0231 9.24828 17.3464 9.39828C17.6731 9.54495 17.9548 9.76995 18.1914 10.0733C18.4314 10.3766 18.6181 10.7599 18.7514 11.2233C18.8881 11.6866 18.9564 12.2349 18.9564 12.8683ZM17.6814 12.8683C17.6814 12.3449 17.6431 11.9116 17.5664 11.5683C17.4898 11.2249 17.3864 10.9516 17.2564 10.7483C17.1298 10.5449 16.9831 10.4033 16.8164 10.3233C16.6498 10.2399 16.4764 10.1983 16.2964 10.1983C16.1198 10.1983 15.9481 10.2399 15.7814 10.3233C15.6181 10.4033 15.4731 10.5449 15.3464 10.7483C15.2198 10.9516 15.1181 11.2249 15.0414 11.5683C14.9681 11.9116 14.9314 12.3449 14.9314 12.8683C14.9314 13.3916 14.9681 13.8249 15.0414 14.1683C15.1181 14.5116 15.2198 14.7849 15.3464 14.9883C15.4731 15.1916 15.6181 15.3349 15.7814 15.4183C15.9481 15.4983 16.1198 15.5383 16.2964 15.5383C16.4764 15.5383 16.6498 15.4983 16.8164 15.4183C16.9831 15.3349 17.1298 15.1916 17.2564 14.9883C17.3864 14.7849 17.4898 14.5116 17.5664 14.1683C17.6431 13.8249 17.6814 13.3916 17.6814 12.8683Z" fill="black"/>
</svg>
