<svg width="28" height="26" viewBox="0 0 28 26" fill="none" xmlns="http://www.w3.org/2000/svg">
<path d="M0.591106 8.29215L3.52491 12.4574C3.70728 12.7163 4.08136 12.7426 4.29816 12.5118L6.22601 10.459V24.959C6.22601 25.2351 6.44987 25.459 6.72601 25.459H20.9869C21.263 25.459 21.4869 25.2351 21.4869 24.959V10.459L23.4147 12.5118C23.6315 12.7426 24.0056 12.7163 24.188 12.4574L27.1218 8.29214C27.2584 8.09817 27.2399 7.83489 27.0775 7.66194L22.2693 2.54208C21.7579 1.99758 21.1043 1.60714 20.3825 1.41499L16.9707 0.50676C16.8703 0.480047 16.7668 0.537122 16.7357 0.636223C16.3893 1.74277 15.7202 2.72057 14.8142 3.44414L13.973 4.11591C13.9048 4.17035 13.8081 4.17035 13.7399 4.11591L12.8987 3.44414C11.9927 2.72057 11.3235 1.74277 10.9771 0.636223C10.9461 0.537122 10.8425 0.480047 10.7422 0.50676L7.33042 1.41499C6.60859 1.60714 5.95498 1.99758 5.44363 2.54208L0.635413 7.66194C0.472991 7.83489 0.45448 8.09817 0.591106 8.29215Z" fill="#F3DD14" stroke="#050505" stroke-linejoin="round"/>
<path d="M13.6807 15.534V16.459H9.68066V15.534H11.1457V11.319C11.1457 11.1523 11.1507 10.9807 11.1607 10.804L10.1207 11.674C10.0607 11.7207 10.0007 11.7507 9.94066 11.764C9.884 11.774 9.829 11.774 9.77566 11.764C9.72566 11.754 9.68066 11.7373 9.64066 11.714C9.60066 11.6873 9.57066 11.659 9.55066 11.629L9.16066 11.094L11.3657 9.21898H12.3807V15.534H13.6807ZM18.9564 12.844C18.9564 13.474 18.8881 14.0223 18.7514 14.489C18.6181 14.9523 18.4314 15.3357 18.1914 15.639C17.9548 15.9423 17.6731 16.169 17.3464 16.319C17.0231 16.4657 16.6731 16.539 16.2964 16.539C15.9198 16.539 15.5698 16.4657 15.2464 16.319C14.9264 16.169 14.6481 15.9423 14.4114 15.639C14.1748 15.3357 13.9898 14.9523 13.8564 14.489C13.7231 14.0223 13.6564 13.474 13.6564 12.844C13.6564 12.2107 13.7231 11.6623 13.8564 11.199C13.9898 10.7357 14.1748 10.3523 14.4114 10.049C14.6481 9.74565 14.9264 9.52065 15.2464 9.37398C15.5698 9.22398 15.9198 9.14898 16.2964 9.14898C16.6731 9.14898 17.0231 9.22398 17.3464 9.37398C17.6731 9.52065 17.9548 9.74565 18.1914 10.049C18.4314 10.3523 18.6181 10.7357 18.7514 11.199C18.8881 11.6623 18.9564 12.2107 18.9564 12.844ZM17.6814 12.844C17.6814 12.3207 17.6431 11.8873 17.5664 11.544C17.4898 11.2007 17.3864 10.9273 17.2564 10.724C17.1298 10.5207 16.9831 10.379 16.8164 10.299C16.6498 10.2157 16.4764 10.174 16.2964 10.174C16.1198 10.174 15.9481 10.2157 15.7814 10.299C15.6181 10.379 15.4731 10.5207 15.3464 10.724C15.2198 10.9273 15.1181 11.2007 15.0414 11.544C14.9681 11.8873 14.9314 12.3207 14.9314 12.844C14.9314 13.3673 14.9681 13.8007 15.0414 14.144C15.1181 14.4873 15.2198 14.7607 15.3464 14.964C15.4731 15.1673 15.6181 15.3107 15.7814 15.394C15.9481 15.474 16.1198 15.514 16.2964 15.514C16.4764 15.514 16.6498 15.474 16.8164 15.394C16.9831 15.3107 17.1298 15.1673 17.2564 14.964C17.3864 14.7607 17.4898 14.4873 17.5664 14.144C17.6431 13.8007 17.6814 13.3673 17.6814 12.844Z" fill="black"/>
</svg>
