<svg width="28" height="30" viewBox="0 0 28 30" fill="none" xmlns="http://www.w3.org/2000/svg">
<path d="M27.3001 29.02H21.3001C20.9001 29.02 20.5734 28.92 20.3201 28.72C20.0801 28.52 19.8867 28.2867 19.7401 28.02L13.4601 17.34C13.3934 17.4867 13.3267 17.6334 13.2601 17.78C13.2067 17.9134 13.1401 18.04 13.0601 18.16L7.10008 28.02C6.92675 28.2734 6.72008 28.5067 6.48008 28.72C6.25341 28.92 5.96008 29.02 5.60008 29.02H7.81212e-05L9.50008 14.08L0.360078 1.7643e-05H6.36008C6.76008 1.7643e-05 7.05341 0.0533511 7.24008 0.160018C7.42674 0.266685 7.59341 0.440018 7.74008 0.680018L13.9801 10.94C14.0467 10.78 14.1201 10.62 14.2001 10.46C14.2801 10.2867 14.3734 10.1134 14.4801 9.94002L20.0801 0.780018C20.2401 0.513352 20.4134 0.320018 20.6001 0.200017C20.8001 0.0666842 21.0401 1.7643e-05 21.3201 1.7643e-05H27.0601L17.8401 13.82L27.3001 29.02Z" fill="black"/>
</svg>
